<svg width="128" height="128" viewBox="0 0 128 128" fill="none" xmlns="http://www.w3.org/2000/svg">
<g clip-path="url(#clip0_1_2)">
<rect width="128" height="128" rx="32" fill="#1E90FF"/>
<path d="M46.4062 46.9062V55.1875H59.0312V61.5938H46.4062V76.125C46.4062 77.3542 46.5417 78.3854 46.8125 79.2188C47.1042 80.0312 47.5104 80.6771 48.0312 81.1562C48.5521 81.6562 49.1771 82.0104 49.9062 82.2188C50.6562 82.4271 51.4896 82.5312 52.4062 82.5312C53.0729 82.5312 53.75 82.5 54.4375 82.4375C55.1458 82.375 55.8229 82.2917 56.4688 82.1875C57.0938 82.1042 57.6771 82.0104 58.2188 81.9062C58.7812 81.8021 59.2604 81.6979 59.6562 81.5938L60.5 87.5625C59.8958 87.9167 59.1875 88.2292 58.375 88.5C57.5625 88.75 56.6979 88.9583 55.7812 89.125C54.8646 89.2917 53.9062 89.4167 52.9062 89.5C51.9271 89.6042 50.9583 89.6562 50 89.6562C48.1458 89.6562 46.4583 89.4167 44.9375 88.9375C43.4375 88.4375 42.1562 87.6667 41.0938 86.625C40.0104 85.6042 39.1771 84.3021 38.5938 82.7188C38.0104 81.1146 37.7188 79.1979 37.7188 76.9688V61.5938H30V55.1875H37.7188V46.9062H46.4062ZM90.7188 79.7188C90.7188 79.1979 90.5938 78.7396 90.3438 78.3438C90.1146 77.9479 89.6979 77.5729 89.0938 77.2188C88.4688 76.8854 87.6458 76.5729 86.625 76.2812C85.6042 75.9896 84.3125 75.6979 82.75 75.4062C80.7708 75.0104 78.9583 74.5208 77.3125 73.9375C75.6875 73.3333 74.2917 72.6042 73.125 71.75C71.9583 70.9167 71.0417 69.9479 70.375 68.8438C69.7292 67.7396 69.4062 66.4688 69.4062 65.0312C69.4062 63.6354 69.7396 62.3021 70.4062 61.0312C71.0729 59.7604 72.0312 58.6458 73.2812 57.6875C74.5312 56.7292 76.0521 55.9688 77.8438 55.4062C79.6354 54.8438 81.6562 54.5625 83.9062 54.5625C86.2604 54.5625 88.375 54.8438 90.25 55.4062C92.125 55.9479 93.7188 56.6979 95.0312 57.6562C96.3229 58.6354 97.3125 59.7917 98 61.125C98.6875 62.4583 99.0312 63.9062 99.0312 65.4688H90.3438C90.3438 64.9062 90.25 64.3854 90.0625 63.9062C89.875 63.4062 89.5938 62.9583 89.2188 62.5625C88.6979 62.0417 87.9896 61.625 87.0938 61.3125C86.2188 61 85.1562 60.8438 83.9062 60.8438C82.8438 60.8438 81.9167 60.9479 81.125 61.1562C80.3333 61.3646 79.6875 61.6562 79.1875 62.0312C78.7292 62.3646 78.375 62.7604 78.125 63.2188C77.8958 63.6562 77.7812 64.125 77.7812 64.625C77.7812 65.125 77.8854 65.5938 78.0938 66.0312C78.3021 66.4479 78.6771 66.8229 79.2188 67.1562C79.7396 67.5104 80.4583 67.8333 81.375 68.125C82.2917 68.3958 83.4583 68.6354 84.875 68.8438C86.9167 69.1771 88.8125 69.6042 90.5625 70.125C92.3125 70.6458 93.8229 71.3125 95.0938 72.125C96.3646 72.9583 97.3542 73.9688 98.0625 75.1562C98.7917 76.3229 99.1562 77.7188 99.1562 79.3438C99.1562 80.8438 98.7917 82.2292 98.0625 83.5C97.3542 84.75 96.3438 85.8333 95.0312 86.75C93.6979 87.6667 92.0938 88.3854 90.2188 88.9062C88.3438 89.4062 86.25 89.6562 83.9375 89.6562C81.3958 89.6562 79.1458 89.3229 77.1875 88.6562C75.25 87.9896 73.625 87.1146 72.3125 86.0312C71 84.9688 70 83.7604 69.3125 82.4062C68.6458 81.0312 68.3125 79.6562 68.3125 78.2812H76.5938C76.6562 79.1979 76.9062 79.9896 77.3438 80.6562C77.7812 81.3021 78.3438 81.8229 79.0312 82.2188C79.7188 82.6354 80.5 82.9375 81.375 83.125C82.2708 83.3125 83.1875 83.4062 84.125 83.4062C85.25 83.4062 86.2292 83.3125 87.0625 83.125C87.9167 82.9167 88.6146 82.6458 89.1562 82.3125C89.6771 81.9792 90.0625 81.5938 90.3125 81.1562C90.5833 80.7188 90.7188 80.2396 90.7188 79.7188Z" fill="white"/>
</g>
<defs>
<clipPath id="clip0_1_2">
<rect width="128" height="128" fill="white"/>
</clipPath>
</defs>
</svg>
